<svg width="29" height="29" viewBox="0 0 29 29" fill="none" xmlns="http://www.w3.org/2000/svg">
<path d="M26.2329 24.5169L19.7079 18.004C21.0334 16.3153 21.7527 14.23 21.75 12.0832C21.75 10.1713 21.1831 8.30234 20.1209 6.71266C19.0587 5.12299 17.549 3.88399 15.7826 3.15234C14.0162 2.42069 12.0726 2.22926 10.1975 2.60225C8.32231 2.97524 6.59987 3.8959 5.24796 5.24781C3.89605 6.59972 2.97539 8.32215 2.6024 10.1973C2.22941 12.0725 2.42084 14.0161 3.15249 15.7824C3.88414 17.5488 5.12314 19.0585 6.71282 20.1207C8.30249 21.1829 10.1714 21.7498 12.0833 21.7498C14.2301 21.7525 16.3155 21.0333 18.0042 19.7078L24.5171 26.2328C24.6294 26.346 24.7631 26.4359 24.9103 26.4973C25.0575 26.5586 25.2155 26.5902 25.375 26.5902C25.5345 26.5902 25.6924 26.5586 25.8397 26.4973C25.9869 26.4359 26.1206 26.346 26.2329 26.2328C26.3462 26.1204 26.4361 25.9868 26.4974 25.8395C26.5588 25.6923 26.5903 25.5344 26.5903 25.3748C26.5903 25.2153 26.5588 25.0574 26.4974 24.9101C26.4361 24.7629 26.3462 24.6293 26.2329 24.5169ZM4.83333 12.0832C4.83333 10.6493 5.25853 9.24755 6.05517 8.05529C6.85181 6.86304 7.98411 5.93378 9.30887 5.38505C10.6336 4.83631 12.0914 4.69274 13.4977 4.97248C14.9041 5.25222 16.1959 5.94272 17.2099 6.95665C18.2238 7.97058 18.9143 9.26241 19.194 10.6688C19.4738 12.0751 19.3302 13.5329 18.7815 14.8576C18.2327 16.1824 17.3035 17.3147 16.1112 18.1113C14.919 18.908 13.5172 19.3332 12.0833 19.3332C10.1605 19.3332 8.31644 18.5693 6.9568 17.2097C5.59716 15.8501 4.83333 14.006 4.83333 12.0832Z" fill="white"/>
</svg>
