<svg width="18" height="18" viewBox="0 0 18 18" fill="none" xmlns="http://www.w3.org/2000/svg">
<g clip-path="url(#clip0_306_7096)">
<path d="M11.9681 13.7101L9.5663 16.1052V1.89438L11.9681 4.28947C12.1892 4.50993 12.5479 4.50993 12.7689 4.28947C12.9899 4.06904 12.9899 3.71136 12.7689 3.49093L9.42851 0.160613C9.31042 0.04309 9.15408 -0.00695535 8.99998 0.000908281C8.84535 -0.00752353 8.68901 0.0425219 8.57092 0.160613L5.23106 3.4909C5.01006 3.71136 5.01006 4.06902 5.23106 4.28947C5.45208 4.5099 5.81085 4.5099 6.03185 4.28947L8.43369 1.89438V16.1052L6.03185 13.7101C5.81085 13.4896 5.45206 13.4896 5.23106 13.7101C5.01006 13.9305 5.01006 14.2882 5.23106 14.5086L8.57092 17.8395C8.68901 17.957 8.84535 18.0071 8.99944 17.9992C9.1541 18.0071 9.31044 17.957 9.42796 17.8395L12.7678 14.5086C12.9888 14.2882 12.9888 13.9305 12.7678 13.7101C12.5474 13.4896 12.1891 13.4896 11.9681 13.7101Z" fill="#333333"/>
</g>
<defs>
<clipPath id="clip0_306_7096">
<rect width="18" height="18" fill="white"/>
</clipPath>
</defs>
</svg>
