<svg width="20" height="20" viewBox="0 0 20 20" fill="none" xmlns="http://www.w3.org/2000/svg">
<g clip-path="url(#clip0_302_7088)">
<path d="M10 13.4004C11.0658 13.3991 12.0876 12.9752 12.8412 12.2216C13.5948 11.468 14.0187 10.4462 14.0199 9.38048V4.02009C14.0166 2.95611 13.5916 1.93685 12.8381 1.18568C12.0846 0.434503 11.064 0.0126953 10 0.0126953C8.93603 0.0126953 7.91544 0.434503 7.16192 1.18568C6.40841 1.93685 5.98342 2.95611 5.9801 4.02009V9.38048C5.98131 10.4463 6.40523 11.468 7.15885 12.2216C7.91247 12.9753 8.93425 13.3992 10 13.4004ZM7.2301 4.02009C7.23285 3.28726 7.5259 2.5854 8.04506 2.06818C8.56421 1.55097 9.26718 1.26057 10 1.26057C10.7328 1.26057 11.4358 1.55097 11.955 2.06818C12.4741 2.5854 12.7672 3.28726 12.7699 4.02009V9.38048C12.7672 10.1133 12.4741 10.8152 11.955 11.3324C11.4358 11.8496 10.7328 12.14 10 12.14C9.26718 12.14 8.56421 11.8496 8.04506 11.3324C7.5259 10.8152 7.23285 10.1133 7.2301 9.38048V4.02009ZM10.625 15.8409V18.7502H13.2503C13.4161 18.7502 13.5751 18.8161 13.6923 18.9333C13.8095 19.0505 13.8753 19.2094 13.8753 19.3752C13.8753 19.541 13.8095 19.6999 13.6923 19.8171C13.5751 19.9344 13.4161 20.0002 13.2503 20.0002H6.74971C6.58395 20.0002 6.42498 19.9344 6.30777 19.8171C6.19056 19.6999 6.12471 19.541 6.12471 19.3752C6.12471 19.2094 6.19056 19.0505 6.30777 18.9333C6.42498 18.8161 6.58395 18.7502 6.74971 18.7502H9.37502V15.8409C7.749 15.6808 6.24028 14.9229 5.14124 13.7139C4.0422 12.5049 3.43111 10.931 3.42639 9.29708C3.42639 9.13132 3.49224 8.97235 3.60945 8.85514C3.72666 8.73793 3.88563 8.67208 4.05139 8.67208C4.21715 8.67208 4.37612 8.73793 4.49333 8.85514C4.61054 8.97235 4.67639 9.13132 4.67639 9.29708C4.67639 12.2325 7.06459 14.6207 10 14.6207C12.9355 14.6207 15.3237 12.2324 15.3237 9.29708C15.3237 9.13132 15.3895 8.97235 15.5067 8.85514C15.6239 8.73793 15.7829 8.67208 15.9487 8.67208C16.1144 8.67208 16.2734 8.73793 16.3906 8.85514C16.5078 8.97235 16.5737 9.13132 16.5737 9.29708C16.5689 10.931 15.9578 12.5049 14.8588 13.7139C13.7598 14.9229 12.251 15.6808 10.625 15.8409Z" fill="#333333"/>
</g>
<defs>
<clipPath id="clip0_302_7088">
<rect width="20" height="20" fill="white"/>
</clipPath>
</defs>
</svg>
