<?xml version="1.0" encoding="UTF-8"?>
<svg version="1.1" xmlns="http://www.w3.org/2000/svg" width="225" height="225">
<path d="M0 0 C74.25 0 148.5 0 225 0 C225 74.25 225 148.5 225 225 C150.75 225 76.5 225 0 225 C0 150.75 0 76.5 0 0 Z " fill="#FEFEFE" transform="translate(0,0)"/>
<path d="M0 0 C2.5713019 1.41584345 3.95179389 2.79817844 6 5 C6 5.99 6 6.98 6 8 C6.70125 7.896875 7.4025 7.79375 8.125 7.6875 C12.35389837 8.14716287 13.9438115 10.08272916 17 13 C18.5547669 16.10953379 18.28644437 18.56266761 18 22 C17.34 22.969375 16.68 23.93875 16 24.9375 C13.92696064 28.11184152 13.80445192 28.51304267 14.0625 32 C14.25302051 35.3087061 13.78355644 36.85153688 11.6875 39.4375 C8.480971 42.49488812 7.01307862 42.96247857 2.625 43.125 C-0.41530963 43.02016174 -3.03901515 42.59219697 -6 42 C-6.99 42.495 -6.99 42.495 -8 43 C-12.37959914 43.50533836 -14.51443013 43.27875307 -18.375 41.0625 C-21.54445639 38.1265825 -21.55139237 35.34674901 -21.72265625 31.1953125 C-21.87112202 28.69536662 -21.87112202 28.69536662 -24.0625 25.9375 C-26.23763929 22.63970817 -26.66798428 20.83191034 -26.4453125 16.96484375 C-25.58537728 13.17056819 -23.94304684 11.56733873 -21 9 C-17.1875 8.125 -17.1875 8.125 -14 8 C-13.62875 6.8553125 -13.62875 6.8553125 -13.25 5.6875 C-10.56724981 -0.08041291 -6.09849467 -1.27344046 0 0 Z " fill="#E13737" transform="translate(132,91)"/>
<path d="M0 0 C10.23 0 20.46 0 31 0 C31 11.22 31 22.44 31 34 C24.1628125 34.0928125 24.1628125 34.0928125 17.1875 34.1875 C15.03577271 34.22846802 15.03577271 34.22846802 12.84057617 34.27026367 C11.1463855 34.28150269 11.1463855 34.28150269 9.41796875 34.29296875 C8.26063232 34.3086792 7.1032959 34.32438965 5.91088867 34.34057617 C3 34 3 34 1.1171875 32.92382812 C-0.61418801 29.94235107 -0.33483575 27.34491947 -0.29296875 23.92578125 C-0.28547607 22.67450439 -0.2779834 21.42322754 -0.27026367 20.1340332 C-0.24295166 18.54292725 -0.21563965 16.95182129 -0.1875 15.3125 C-0.125625 10.259375 -0.06375 5.20625 0 0 Z " fill="#3D3A37" transform="translate(72,138)"/>
<path d="M0 0 C3.3 0 6.6 0 10 0 C10 7.92 10 15.84 10 24 C15.94 24 21.88 24 28 24 C28 27.3 28 30.6 28 34 C23.89596637 34.08694042 19.79216871 34.14037149 15.6875 34.1875 C13.93663086 34.22520508 13.93663086 34.22520508 12.15039062 34.26367188 C11.03212891 34.27333984 9.91386719 34.28300781 8.76171875 34.29296875 C7.73006592 34.3086792 6.69841309 34.32438965 5.63549805 34.34057617 C3 34 3 34 1.15820312 32.92382812 C-0.63245353 29.94946589 -0.33510459 27.36687468 -0.29296875 23.92578125 C-0.28872391 23.2419487 -0.28447906 22.55811615 -0.28010559 21.8535614 C-0.26333353 19.67280439 -0.22568657 17.49297691 -0.1875 15.3125 C-0.17245114 13.83269565 -0.15876308 12.3528768 -0.14648438 10.87304688 C-0.11343569 7.24839664 -0.06166446 3.62428906 0 0 Z " fill="#3D3936" transform="translate(44,99)"/>
<path d="M0 0 C1.98 0 3.96 0 6 0 C6 1.32 6 2.64 6 4 C7.175625 4.3403125 7.175625 4.3403125 8.375 4.6875 C11 6 11 6 12.3125 8.625 C12.6528125 9.800625 12.6528125 9.800625 13 11 C13.99 11 14.98 11 16 11 C16 8.69 16 6.38 16 4 C17.98 4 19.96 4 22 4 C22 10.6 22 17.2 22 24 C20.02 24 18.04 24 16 24 C16 21.69 16 19.38 16 17 C12.29655972 18.23448009 10.69749018 20.23334341 8 23 C5.17998673 24.41000664 3.12992745 24.24548451 0 24 C-2.77428577 22.73896101 -4.48317435 21.68910086 -6.3125 19.25 C-7.32815881 15.9260257 -7.41796486 13.46313738 -7 10 C-5.56104672 7.55538421 -4.06607296 6.01688075 -2 4 C-1.34 4 -0.68 4 0 4 C0 2.68 0 1.36 0 0 Z " fill="#3D3B39" transform="translate(85,54)"/>
<path d="M0 0 C0.98291016 0.00966797 1.96582031 0.01933594 2.97851562 0.02929688 C4.00267578 0.05443359 5.02683594 0.07957031 6.08203125 0.10546875 C7.11779297 0.11900391 8.15355469 0.13253906 9.22070312 0.14648438 C11.77886737 0.1818507 14.33676454 0.23565779 16.89453125 0.29296875 C16.89453125 3.59296875 16.89453125 6.89296875 16.89453125 10.29296875 C11.94453125 10.29296875 6.99453125 10.29296875 1.89453125 10.29296875 C1.89453125 18.21296875 1.89453125 26.13296875 1.89453125 34.29296875 C-1.40546875 34.29296875 -4.70546875 34.29296875 -8.10546875 34.29296875 C-8.17964921 29.93306002 -8.23408419 25.57348596 -8.27026367 21.21313477 C-8.28534643 19.72999676 -8.30581564 18.24690331 -8.33178711 16.76391602 C-8.36819491 14.6315613 -8.38519948 12.4997964 -8.3984375 10.3671875 C-8.41414795 9.08416748 -8.4298584 7.80114746 -8.44604492 6.47924805 C-8.10546875 3.29296875 -8.10546875 3.29296875 -6.90625 1.36914062 C-4.48598833 -0.07724135 -2.81150265 -0.04875438 0 0 Z " fill="#3C3835" transform="translate(86.10546875,98.70703125)"/>
<path d="M0 0 C3.3 0 6.6 0 10 0 C10.09890664 4.35988072 10.17148376 8.71916673 10.21972656 13.07983398 C10.23983759 14.56302261 10.26713074 16.04613199 10.30175781 17.52905273 C10.35030352 19.66149435 10.37297195 21.79288777 10.390625 23.92578125 C10.41157227 25.20880127 10.43251953 26.49182129 10.45410156 27.8137207 C10 31 10 31 8.28710938 32.92382812 C5.64891626 34.16519824 3.92305294 34.34615341 1.015625 34.29296875 C0.08105469 34.28330078 -0.85351562 34.27363281 -1.81640625 34.26367188 C-2.78449219 34.23853516 -3.75257813 34.21339844 -4.75 34.1875 C-5.73355469 34.17396484 -6.71710938 34.16042969 -7.73046875 34.14648438 C-10.15388077 34.11119197 -12.57701049 34.05738659 -15 34 C-15 30.7 -15 27.4 -15 24 C-10.05 24 -5.1 24 0 24 C0 16.08 0 8.16 0 0 Z " fill="#3C3734" transform="translate(163,99)"/>
<path d="M0 0 C3.3 0 6.6 0 10 0 C10 4.62 10 9.24 10 14 C16.27 14 22.54 14 29 14 C29 17.3 29 20.6 29 24 C24.9169058 24.11614929 20.83423623 24.18723457 16.75 24.25 C15.59113281 24.28351563 14.43226563 24.31703125 13.23828125 24.3515625 C12.12324219 24.36445313 11.00820312 24.37734375 9.859375 24.390625 C8.83295898 24.41157227 7.80654297 24.43251953 6.74902344 24.45410156 C3.23157627 23.87306677 2.08465616 22.85811516 0 20 C-0.45410156 17.70996094 -0.45410156 17.70996094 -0.390625 15.234375 C-0.37773437 14.34492188 -0.36484375 13.45546875 -0.3515625 12.5390625 C-0.31804687 11.61867187 -0.28453125 10.69828125 -0.25 9.75 C-0.23195312 8.81414062 -0.21390625 7.87828125 -0.1953125 6.9140625 C-0.14826909 4.60893562 -0.07652778 2.30433646 0 0 Z " fill="#403C3A" transform="translate(148,148)"/>
<path d="M0 0 C6.6 0 13.2 0 20 0 C20 1.65 20 3.3 20 5 C19.34 5 18.68 5 18 5 C18 7.97 18 10.94 18 14 C18.99 14 19.98 14 21 14 C21 15.98 21 17.96 21 20 C13.74 20 6.48 20 -1 20 C-1 18.02 -1 16.04 -1 14 C-0.01 14 0.98 14 2 14 C2 11.03 2 8.06 2 5 C1.34 5 0.68 5 0 5 C0 3.35 0 1.7 0 0 Z " fill="#3D3B38" transform="translate(44,58)"/>
<path d="M0 0 C3.43796837 -0.08078777 6.87404727 -0.14039791 10.3125 -0.1875 C11.28896484 -0.21263672 12.26542969 -0.23777344 13.27148438 -0.26367188 C14.20927734 -0.27333984 15.14707031 -0.28300781 16.11328125 -0.29296875 C16.97735596 -0.3086792 17.84143066 -0.32438965 18.73168945 -0.34057617 C21 0 21 0 22.78710938 1.2265625 C24.35564419 3.52000793 24.34578446 4.90394683 24.29296875 7.66796875 C24.28330078 8.56064453 24.27363281 9.45332031 24.26367188 10.37304688 C24.23853516 11.30181641 24.21339844 12.23058594 24.1875 13.1875 C24.16719727 14.59805664 24.16719727 14.59805664 24.14648438 16.03710938 C24.11113603 18.35831735 24.05732915 20.67923088 24 23 C20.7 23 17.4 23 14 23 C14 18.38 14 13.76 14 9 C9.38 9 4.76 9 0 9 C0 6.03 0 3.06 0 0 Z " fill="#383633" transform="translate(119,138)"/>
<path d="M0 0 C5.61 0 11.22 0 17 0 C17 1.98 17 3.96 17 6 C13.37 6 9.74 6 6 6 C6 8.97 6 11.94 6 15 C9.63 15 13.26 15 17 15 C17 16.98 17 18.96 17 21 C14.54101345 21.08076963 12.08466258 21.14037143 9.625 21.1875 C8.92632812 21.21263672 8.22765625 21.23777344 7.5078125 21.26367188 C5.4765625 21.29296875 5.4765625 21.29296875 2 21 C-0.06723714 17.89914429 -0.24497423 17.27068319 -0.1953125 13.76953125 C-0.18886719 12.96708984 -0.18242187 12.16464844 -0.17578125 11.33789062 C-0.15902344 10.50451172 -0.14226562 9.67113281 -0.125 8.8125 C-0.11597656 7.96751953 -0.10695312 7.12253906 -0.09765625 6.25195312 C-0.07410703 4.16784757 -0.03823647 2.08388783 0 0 Z " fill="#44423F" transform="translate(146,57)"/>
<path d="M0 0 C2.31 0 4.62 0 7 0 C7 4.95 7 9.9 7 15 C10.3 15 13.6 15 17 15 C17 16.98 17 18.96 17 21 C12.05 21 7.1 21 2 21 C2 20.34 2 19.68 2 19 C1.34 19 0.68 19 0 19 C0 12.73 0 6.46 0 0 Z " fill="#4D4A47" transform="translate(112,57)"/>
<path d="M0 0 C3.63 0 7.26 0 11 0 C11 4.95 11 9.9 11 15 C7.37 15 3.74 15 0 15 C0 10.05 0 5.1 0 0 Z " fill="#F1F0F0" transform="translate(82,147)"/>
<path d="M0 0 C1.98 0 3.96 0 6 0 C6 2.64 6 5.28 6 8 C7.32 8 8.64 8 10 8 C10 9.98 10 11.96 10 14 C8.68 14 7.36 14 6 14 C6 16.31 6 18.62 6 21 C4.02 21 2.04 21 0 21 C0 14.07 0 7.14 0 0 Z " fill="#464442" transform="translate(167,57)"/>
<path d="M0 0 C1.98 0 3.96 0 6 0 C6 2.31 6 4.62 6 7 C6.99 7 7.98 7 9 7 C9 8.65 9 10.3 9 12 C8.01 12 7.02 12 6 12 C6 14.64 6 17.28 6 20 C4.02 20 2.04 20 0 20 C0 13.4 0 6.8 0 0 Z " fill="#393633" transform="translate(133,58)"/>
<path d="M0 0 C6.3833448 -0.48176187 6.3833448 -0.48176187 9 1.5625 C10.43135511 5.05142809 9.933966 7.39755972 9 11 C5.5647952 13.29013653 4.014669 13.17842973 0 13 C0 12.34 0 11.68 0 11 C-0.66 11 -1.32 11 -2 11 C-2.28571429 3.57142857 -2.28571429 3.57142857 0 0 Z " fill="#67030D" transform="translate(124,107)"/>
<path d="M0 0 C3.99201105 0.76442765 7.88582654 0.64194458 11.9375 0.5625 C11.2775 2.2125 10.6175 3.8625 9.9375 5.5625 C3.6675 5.5625 -2.6025 5.5625 -9.0625 5.5625 C-9.0625 8.5325 -9.0625 11.5025 -9.0625 14.5625 C-4.4425 14.5625 0.1775 14.5625 4.9375 14.5625 C4.9375 19.1825 4.9375 23.8025 4.9375 28.5625 C8.2375 28.5625 11.5375 28.5625 14.9375 28.5625 C14.9375 28.8925 14.9375 29.2225 14.9375 29.5625 C11.3075 29.5625 7.6775 29.5625 3.9375 29.5625 C3.9375 24.9425 3.9375 20.3225 3.9375 15.5625 C-0.6825 15.5625 -5.3025 15.5625 -10.0625 15.5625 C-10.0625 11.9325 -10.0625 8.3025 -10.0625 4.5625 C-8.0825 3.9025 -6.1025 3.2425 -4.0625 2.5625 C-4.0625 1.9025 -4.0625 1.2425 -4.0625 0.5625 C-2.0625 -0.4375 -2.0625 -0.4375 0 0 Z " fill="#D5D1CF" transform="translate(128.0625,132.4375)"/>
<path d="M0 0 C1.98 0 3.96 0 6 0 C6 6.6 6 13.2 6 20 C4.02 20 2.04 20 0 20 C0 13.4 0 6.8 0 0 Z " fill="#3A3633" transform="translate(68,58)"/>
<path d="M0 0 C1.875 0.6875 1.875 0.6875 2.875 1.6875 C3.0625 4.125 3.0625 4.125 2.875 6.6875 C2.215 7.3475 1.555 8.0075 0.875 8.6875 C-3.68055556 8.13194444 -3.68055556 8.13194444 -5.125 6.6875 C-5.375 4.25 -5.375 4.25 -5.125 1.6875 C-2.125 -0.3125 -2.125 -0.3125 0 0 Z " fill="#F1F1F0" transform="translate(89.125,63.3125)"/>
<path d="M0 0 C2.62901288 1.52206009 4.84365964 2.84365964 7 5 C7 5.99 7 6.98 7 8 C8.65 8 10.3 8 12 8 C12 8.33 12 8.66 12 9 C10.37536158 9.05395478 8.75021459 9.09277195 7.125 9.125 C6.22007812 9.14820312 5.31515625 9.17140625 4.3828125 9.1953125 C2 9 2 9 0 7 C-0.125 3.375 -0.125 3.375 0 0 Z " fill="#DE403F" transform="translate(131,91)"/>
<path d="M0 0 C1.32 0 2.64 0 4 0 C4 2.97 4 5.94 4 9 C2.68 9 1.36 9 0 9 C0 6.03 0 3.06 0 0 Z " fill="#EEEEEE" transform="translate(52,63)"/>
<path d="M0 0 C3.57104439 1.87949705 5.54744301 3.17053157 7 7 C4.0625 5.75 4.0625 5.75 1 4 C0.125 1.8125 0.125 1.8125 0 0 Z " fill="#D64549" transform="translate(131,91)"/>
</svg>
