<svg width="14" height="14" viewBox="0 0 14 14" fill="none" xmlns="http://www.w3.org/2000/svg">
<g clip-path="url(#clip0_98_4510)">
<path d="M0.241394 7.72418H1.49654C1.82637 10.2143 3.78572 12.1736 6.27582 12.5035V13.7586C6.27625 13.8918 6.38412 13.9996 6.51721 14H7.48279C7.61588 13.9996 7.72375 13.8918 7.72418 13.7586V12.5035C10.2143 12.1736 12.1736 10.2143 12.5035 7.72418H13.7586C13.8918 7.72375 13.9996 7.61588 14 7.48279V6.51721C13.9996 6.38412 13.8918 6.27625 13.7586 6.27582H12.5035C12.1736 3.78572 10.2143 1.82637 7.72418 1.49654V0.241394C7.72375 0.1082 7.61588 0.000427246 7.48279 0H6.51721C6.38412 0.000427246 6.27625 0.1082 6.27582 0.241394V1.49654C3.78572 1.82637 1.82637 3.78572 1.49654 6.27582H0.241394C0.1082 6.27625 0.000427246 6.38412 0 6.51721V7.48279C0.000427246 7.61588 0.1082 7.72375 0.241394 7.72418ZM7 2.89651C9.26622 2.89651 11.1035 4.73378 11.1035 7C11.1035 9.26622 9.26622 11.1035 7 11.1035C4.73378 11.1035 2.89651 9.26622 2.89651 7C2.89972 4.73506 4.73506 2.89972 7 2.89651Z" fill="white"/>
<path d="M8.93106 7.00002C8.93106 8.06653 8.06653 8.93106 7.00002 8.93106C5.9335 8.93106 5.06897 8.06653 5.06897 7.00002C5.06897 5.9335 5.9335 5.06897 7.00002 5.06897C8.06653 5.06897 8.93106 5.9335 8.93106 7.00002Z" fill="white"/>
</g>
<defs>
<clipPath id="clip0_98_4510">
<rect width="14" height="14" fill="white"/>
</clipPath>
</defs>
</svg>
