<svg width="8" height="12" viewBox="0 0 8 12" fill="none" xmlns="http://www.w3.org/2000/svg">
<path d="M1.11193 0.141803C0.938762 0.137995 0.768708 0.188194 0.625412 0.2855C0.482116 0.382806 0.372698 0.522409 0.312371 0.684776C0.252043 0.847142 0.243804 1.02425 0.288798 1.19151C0.333793 1.35878 0.429784 1.5078 0.563429 1.61799L5.66271 5.98647L0.563429 10.3534C0.47098 10.4214 0.393557 10.5076 0.336007 10.6069C0.278458 10.7061 0.242022 10.8162 0.228981 10.9302C0.21594 11.0442 0.226575 11.1596 0.26022 11.2693C0.293865 11.379 0.349795 11.4806 0.424508 11.5677C0.499222 11.6548 0.591108 11.7254 0.694413 11.7753C0.797718 11.8252 0.910218 11.8532 1.02486 11.8577C1.13951 11.8621 1.25384 11.8429 1.36068 11.8011C1.46752 11.7592 1.56459 11.6958 1.64579 11.6148L7.484 6.6196C7.57568 6.54136 7.6493 6.44425 7.69979 6.33481C7.75027 6.22536 7.77641 6.10623 7.77641 5.9857C7.77641 5.86517 7.75027 5.74605 7.69979 5.6366C7.6493 5.52715 7.57568 5.42995 7.484 5.35171L1.64579 0.351726C1.4983 0.220728 1.30914 0.146252 1.11193 0.141611V0.141803Z" fill="#333333"/>
</svg>
