<svg width="30" height="30" viewBox="0 0 30 30" fill="none" xmlns="http://www.w3.org/2000/svg">
<path d="M15.8786 29H14.1213C12.7001 29 11.5437 27.8437 11.5437 26.4224V25.8279C10.9395 25.6349 10.3524 25.3912 9.78839 25.0993L9.36708 25.5206C8.34666 26.5423 6.71211 26.5123 5.72134 25.5202L4.47933 24.2783C3.4868 23.2869 3.45826 21.6528 4.47966 20.6325L4.90064 20.2116C4.60877 19.6476 4.36514 19.0606 4.17204 18.4562H3.57759C2.15637 18.4562 1 17.2999 1 15.8787V14.1213C1 12.7001 2.15637 11.5437 3.57764 11.5437H4.17209C4.3652 10.9395 4.60883 10.3524 4.9007 9.78845L4.47938 9.36719C3.45859 8.34748 3.48675 6.71331 4.47971 5.72145L5.72183 4.47938C6.7149 3.48495 8.34907 3.46012 9.36752 4.47971L9.78845 4.90064C10.3524 4.60883 10.9395 4.36514 11.5437 4.17204V3.57759C11.5437 2.15631 12.7001 1 14.1214 1H15.8787C17.2999 1 18.4562 2.15631 18.4562 3.57759V4.17209C19.0605 4.36514 19.6476 4.60883 20.2116 4.9007L20.6329 4.47938C21.6533 3.45771 23.2878 3.48768 24.2786 4.47977L25.5206 5.72172C26.5131 6.71315 26.5417 8.34716 25.5203 9.36746L25.0993 9.78845C25.3912 10.3524 25.6348 10.9394 25.8279 11.5437H26.4224C27.8436 11.5437 29 12.7001 29 14.1213V15.8787C29 17.2999 27.8436 18.4562 26.4224 18.4562H25.8279C25.6348 19.0605 25.3912 19.6476 25.0993 20.2116L25.5206 20.6329C26.5414 21.6526 26.5133 23.2867 25.5203 24.2786L24.2782 25.5207C23.2851 26.5151 21.6509 26.5399 20.6325 25.5203L20.2116 25.0994C19.6476 25.3912 19.0605 25.6349 18.4562 25.828V26.4225C18.4562 27.8437 17.2999 29 15.8786 29ZM10.0626 23.3765C10.8462 23.8399 11.6894 24.1899 12.569 24.4169C12.9313 24.5104 13.1844 24.8371 13.1844 25.2112V26.4224C13.1844 26.939 13.6048 27.3594 14.1214 27.3594H15.8787C16.3953 27.3594 16.8157 26.939 16.8157 26.4224V25.2112C16.8157 24.8371 17.0688 24.5104 17.431 24.4169C18.3106 24.1899 19.1539 23.8399 19.9374 23.3765C20.2598 23.1858 20.6702 23.2377 20.9351 23.5025L21.793 24.3605C22.1629 24.7309 22.7569 24.7223 23.1178 24.3609L24.3606 23.1181C24.7206 22.7586 24.7326 22.1644 24.361 21.7933L23.5026 20.935C23.2379 20.6702 23.186 20.2597 23.3766 19.9374C23.84 19.1539 24.19 18.3106 24.417 17.431C24.5105 17.0687 24.8372 16.8157 25.2113 16.8157H26.4224C26.939 16.8157 27.3594 16.3954 27.3594 15.8787V14.1214C27.3594 13.6048 26.939 13.1844 26.4224 13.1844H25.2113C24.8371 13.1844 24.5105 12.9313 24.417 12.5691C24.19 11.6895 23.8399 10.8462 23.3766 10.0628C23.186 9.74043 23.2379 9.32995 23.5026 9.06515L24.3606 8.20716C24.7315 7.8367 24.7219 7.2428 24.361 6.88235L23.1182 5.63958C22.758 5.27886 22.1638 5.2683 21.7934 5.63925L20.9351 6.49757C20.6703 6.76242 20.2597 6.81427 19.9375 6.62362C19.154 6.16026 18.3107 5.8102 17.4311 5.5832C17.0688 5.48973 16.8157 5.16303 16.8157 4.78891V3.57759C16.8157 3.06095 16.3954 2.64062 15.8787 2.64062H14.1214C13.6048 2.64062 13.1844 3.06095 13.1844 3.57759V4.7888C13.1844 5.16292 12.9313 5.48962 12.5691 5.58309C11.6895 5.81009 10.8462 6.16015 10.0627 6.62352C9.74027 6.8141 9.32984 6.76226 9.06504 6.49746L8.2071 5.63947C7.8372 5.26912 7.24313 5.27771 6.88235 5.63909L5.63947 6.88191C5.27952 7.24143 5.26748 7.8355 5.63914 8.20672L6.49746 9.06504C6.76226 9.32984 6.8141 9.74032 6.62352 10.0626C6.16015 10.8461 5.81015 11.6894 5.58314 12.569C5.48962 12.9313 5.16292 13.1843 4.78886 13.1843H3.57764C3.06101 13.1844 2.64062 13.6047 2.64062 14.1213V15.8787C2.64062 16.3953 3.06101 16.8156 3.57764 16.8156H4.7888C5.16292 16.8156 5.48957 17.0687 5.58309 17.4309C5.81009 18.3106 6.16015 19.1538 6.62346 19.9373C6.81405 20.2596 6.7622 20.6701 6.49741 20.9349L5.63941 21.7929C5.26852 22.1634 5.2782 22.7573 5.63909 23.1177L6.88186 24.3605C7.24209 24.7212 7.83621 24.7318 8.20666 24.3608L9.06493 23.5025C9.26006 23.3074 9.666 23.1419 10.0626 23.3765Z" fill="white"/>
<path d="M15 21.0922C11.6407 21.0922 8.90781 18.3592 8.90781 15C8.90781 11.6408 11.6407 8.90781 15 8.90781C18.3593 8.90781 21.0922 11.6408 21.0922 15C21.0922 18.3592 18.3593 21.0922 15 21.0922ZM15 10.5484C12.5454 10.5484 10.5484 12.5454 10.5484 15C10.5484 17.4546 12.5454 19.4516 15 19.4516C17.4546 19.4516 19.4516 17.4546 19.4516 15C19.4516 12.5454 17.4546 10.5484 15 10.5484Z" fill="white"/>
</svg>
