<svg width="16" height="16" viewBox="0 0 16 16" fill="none" xmlns="http://www.w3.org/2000/svg">
<path d="M9.83423 8.23424L7.19987 10.8686L6.16547 9.83424C6.09119 9.76 6.00301 9.70112 5.90596 9.66088C5.80892 9.62072 5.70491 9.6 5.59987 9.6C5.49483 9.6 5.39081 9.62072 5.29376 9.66088C5.19672 9.70112 5.10854 9.76 5.03427 9.83424C4.96 9.90856 4.90108 9.99672 4.86088 10.0938C4.82068 10.1908 4.79999 10.2948 4.79999 10.3998C4.79999 10.505 4.82068 10.609 4.86088 10.706C4.90108 10.803 4.96 10.8912 5.03427 10.9655L6.63427 12.5655C6.70839 12.64 6.79652 12.6992 6.89359 12.7395C6.99065 12.7799 7.09474 12.8007 7.19987 12.8007C7.305 12.8007 7.40908 12.7799 7.50615 12.7395C7.60321 12.6992 7.69135 12.64 7.76547 12.5655L10.9655 9.36544C11.0397 9.2912 11.0986 9.20304 11.1389 9.106C11.179 9.00896 11.1997 8.90496 11.1997 8.79984C11.1997 8.6948 11.179 8.5908 11.1389 8.49376C11.0986 8.39672 11.0397 8.30856 10.9655 8.23424C10.8912 8.16 10.803 8.10112 10.706 8.06088C10.6089 8.02072 10.5049 8 10.3998 8C10.2948 8 10.1908 8.02072 10.0937 8.06088C9.99671 8.10112 9.90855 8.16 9.83423 8.23424V8.23424Z" fill="#666666"/>
<path fill-rule="evenodd" clip-rule="evenodd" d="M12 1.6H14C14.64 1.6 15.2 2.16 15.2 2.8V14.8C15.2 15.44 14.64 16 14 16H1.99999C1.35999 16 0.799988 15.44 0.799988 14.8V2.8C0.799988 2.16 1.35999 1.6 1.99999 1.6H3.19999V0.8C3.19999 0.358172 3.55816 0 3.99999 0C4.44181 0 4.79999 0.358172 4.79999 0.8V1.6H10.4V0.8C10.4 0.358172 10.7581 0 11.2 0C11.6418 0 12 0.358172 12 0.8V1.6ZM13.6 14.4H2.39999V6.4H13.6V14.4Z" fill="#666666"/>
</svg>
