<svg width="18" height="18" viewBox="0 0 18 18" fill="none" xmlns="http://www.w3.org/2000/svg">
<g clip-path="url(#clip0_302_7090)">
<path d="M17.5873 3.70309C17.4327 3.5736 17.2374 3.50264 17.0357 3.50264C16.834 3.50264 16.6387 3.5736 16.4841 3.70309L14.205 5.52049V4.61068C14.205 3.77857 13.485 3.10156 12.6 3.10156H1.60506C0.720035 3.10156 0 3.77857 0 4.61068V13.3887C0 14.2208 0.720035 14.8978 1.60506 14.8978H12.6C13.485 14.8978 14.2051 14.2208 14.2051 13.3887V12.8578L16.4841 14.6752C16.6388 14.8047 16.834 14.8756 17.0357 14.8756C17.2374 14.8756 17.4327 14.8047 17.5873 14.6752C17.8496 14.4661 18 14.1306 18 13.7548V4.62344C18 4.24762 17.8496 3.91213 17.5873 3.70309ZM13.08 13.3886C13.08 13.5969 12.8602 13.7728 12.6 13.7728H1.60506C1.3449 13.7728 1.125 13.597 1.125 13.3886V4.61068C1.125 4.40245 1.34483 4.22656 1.60506 4.22656H12.6C12.8602 4.22656 13.0801 4.40234 13.0801 4.61068L13.08 13.3886ZM16.875 13.5481L14.3227 11.5128C14.2865 11.4842 14.247 11.4602 14.205 11.4413V6.93707C14.247 6.91812 14.2865 6.89408 14.3227 6.8655L16.875 4.83016V13.5481Z" fill="black"/>
</g>
<defs>
<clipPath id="clip0_302_7090">
<rect width="18" height="18" fill="white"/>
</clipPath>
</defs>
</svg>
