<svg width="48" height="49" viewBox="0 0 48 49" fill="none" xmlns="http://www.w3.org/2000/svg">
<g clip-path="url(#clip0_4_542)">
<path d="M48.0377 -0.00408936H33.2352V37.0029H48.0371L48.0377 -0.00408936ZM45.5379 20.2785H42.2692V31.2857H39.063V20.2785H35.7944V16.6474H45.5391L45.5379 20.2785Z" fill="#0d4e99"/>
<path d="M31.3731 0.032135H16.5713V36.9971H31.3731V0.032135ZM25.596 31.3084H22.3898V16.67H25.596V31.3084Z" fill="#0d4e99"/>
<path d="M7.72015 25.1759H6.10159V28.1383H7.72757C8.27636 28.1383 8.66323 27.9992 8.88881 27.7242C9.11376 27.4485 9.22624 27.0771 9.22624 26.611C9.22624 26.1802 9.115 25.8316 8.8919 25.5683C8.6688 25.3075 8.27821 25.1759 7.72015 25.1759Z" fill="#0d4e99"/>
<path d="M8.52295 22.0293C8.71762 21.7895 8.81526 21.4452 8.81526 20.9928C8.81526 20.5737 8.71762 20.2468 8.52295 20.0101C8.32827 19.7746 7.98961 19.6571 7.50694 19.6571H6.10159V22.3878H7.48655C7.98343 22.3878 8.32827 22.2679 8.52295 22.0293Z" fill="#0d4e99"/>
<path d="M14.7636 0H-0.0376892V37.007H14.7636V0ZM12.0586 29.1816C11.8089 29.7885 11.4671 30.2694 11.0333 30.6229C10.7645 30.8424 10.359 31.0037 9.81705 31.1032C9.09584 31.2367 8.6175 31.3022 8.38204 31.3022H2.85335V16.6657H8.85358C9.85352 16.6657 10.6211 17.0143 11.1569 17.7114C11.6927 18.4086 11.9603 19.2714 11.9603 20.2999C11.9603 21.1627 11.7687 21.9038 11.3868 22.5206C11.1316 22.9323 10.7583 23.2574 10.267 23.4972C11.0098 23.75 11.5567 24.1857 11.9072 24.8026C12.2576 25.42 12.4331 26.1957 12.4331 27.1296C12.4331 27.8904 12.3082 28.574 12.0586 29.1816Z" fill="#0d4e99"/>
<path d="M0 48.7278V39.5H2.972C3.78715 39.5 4.5201 39.6848 5.17087 40.0538C5.82163 40.4228 6.32963 40.9457 6.69487 41.6194C7.06011 42.2931 7.24552 43.049 7.24922 43.8852V44.3104C7.24922 45.1553 7.07062 45.9125 6.71403 46.5825C6.35682 47.2512 5.85376 47.7754 5.20609 48.1542C4.55718 48.5319 3.83412 48.7228 3.03565 48.7278H0ZM2.22421 41.2176V47.0157H2.99733C3.63512 47.0157 4.1252 46.7889 4.46757 46.3346C4.80995 45.8803 4.98114 45.206 4.98114 44.3104V43.9112C4.98114 43.0193 4.80995 42.3481 4.46757 41.895C4.1252 41.4438 3.62708 41.2176 2.972 41.2176H2.22421Z" fill="#0d4e99"/>
<path d="M9.9697 45.2351C9.9697 44.5509 10.1026 43.9408 10.3689 43.4062C10.6353 42.8728 11.0172 42.4612 11.5159 42.1738C12.0147 41.8864 12.5993 41.743 13.2711 41.743C14.2976 41.743 15.1066 42.0619 15.698 42.6967C16.2894 43.3327 16.5855 44.1986 16.5855 45.2919V45.368C16.5855 46.4372 16.2888 47.2852 15.6955 47.9126C15.1016 48.5405 14.2982 48.8539 13.2841 48.8539C12.3082 48.8539 11.5246 48.5603 10.9332 47.9762C10.3417 47.3909 10.0228 46.5979 9.97649 45.5954L9.9697 45.2351ZM12.1049 45.368C12.1049 46.0015 12.2044 46.4663 12.4028 46.7623C12.6012 47.0584 12.8947 47.2067 13.2835 47.2067C14.0436 47.2067 14.4323 46.6214 14.4496 45.4514V45.2351C14.4496 44.0064 14.0566 43.3908 13.2711 43.3908C12.5573 43.3908 12.1704 43.9217 12.1117 44.9817L12.1049 45.368Z" fill="#0d4e99"/>
<path d="M22.3725 47.2067C22.6722 47.2067 22.9046 47.1245 23.0696 46.9626C23.2346 46.7994 23.3143 46.5726 23.3106 46.2802H25.3123C25.3123 47.0324 25.0429 47.6492 24.5046 48.1307C23.9663 48.6122 23.2723 48.8539 22.4231 48.8539C21.4263 48.8539 20.6402 48.5411 20.0661 47.9156C19.4919 47.2902 19.2039 46.4236 19.2039 45.3166V45.2283C19.2039 44.5354 19.3319 43.9235 19.5871 43.3932C19.8423 42.8629 20.2113 42.455 20.6933 42.17C21.1748 41.8839 21.7452 41.7417 22.4046 41.7417C23.2958 41.7417 24.0034 41.989 24.5268 42.484C25.0509 42.9779 25.3123 43.6479 25.3123 44.4928H23.3106C23.3106 44.138 23.2241 43.8648 23.051 43.6757C22.878 43.4847 22.6456 43.3895 22.3539 43.3895C21.8002 43.3895 21.4776 43.743 21.3843 44.4483C21.3546 44.6726 21.3398 44.9804 21.3398 45.3741C21.3398 46.062 21.422 46.5404 21.587 46.8056C21.7514 47.0738 22.0134 47.2067 22.3725 47.2067Z" fill="#0d4e99"/>
<path d="M30.6494 40.165V41.8697H31.7767V43.3531H30.6494V46.4904C30.6494 46.7475 30.6952 46.9274 30.7885 47.0287C30.8818 47.1301 31.066 47.1808 31.3404 47.1808C31.5517 47.1808 31.7291 47.1678 31.8725 47.1418V48.6703C31.4887 48.7921 31.087 48.8539 30.6692 48.8539C29.9344 48.8539 29.3912 48.6802 29.0395 48.3335C28.6897 47.9867 28.5142 47.462 28.5142 46.7555V43.3524H27.6391V41.8691H28.5142V40.1644H30.6494V40.165Z" fill="#0d4e99"/>
<path d="M34.1041 45.2351C34.1041 44.5509 34.237 43.9408 34.5033 43.4062C34.7691 42.8728 35.1516 42.4612 35.6497 42.1738C36.1478 41.8864 36.7337 41.743 37.4049 41.743C38.432 41.743 39.241 42.0619 39.8324 42.6967C40.4238 43.3327 40.7199 44.1986 40.7199 45.2919V45.368C40.7199 46.4372 40.4232 47.2852 39.8305 47.9126C39.2366 48.5405 38.4326 48.8539 37.4191 48.8539C36.4426 48.8539 35.659 48.5603 35.0676 47.9762C34.4761 47.3909 34.1572 46.5979 34.1103 45.5954L34.1041 45.2351ZM36.2393 45.368C36.2393 46.0015 36.3394 46.4663 36.5372 46.7623C36.7362 47.0584 37.0297 47.2067 37.4185 47.2067C38.1786 47.2067 38.5673 46.6214 38.5846 45.4514V45.2351C38.5846 44.0064 38.191 43.3908 37.4055 43.3908C36.6923 43.3908 36.3061 43.9217 36.2467 44.9817L36.2393 45.368Z" fill="#0d4e99"/>
<path d="M47.7559 43.8036L47.052 43.7529C46.3808 43.7529 45.9501 43.9643 45.7591 44.3865V48.7272H43.6239V41.8697H45.6262L45.6961 42.7511C46.0545 42.0798 46.5557 41.743 47.1978 41.743C47.4259 41.743 47.6236 41.7683 47.7942 41.819L47.7559 43.8036Z" fill="#0d4e99"/>
</g>
<defs>
<clipPath id="clip0_4_542">
<rect width="48" height="49" fill="#0d4e99"/>
</clipPath>
</defs>
</svg>


