<?xml version="1.0" encoding="UTF-8"?>
<svg xmlns="http://www.w3.org/2000/svg" xmlns:xlink="http://www.w3.org/1999/xlink" width="15px" height="15px" viewBox="0 0 15 15" version="1.1">
<g id="surface1">
<path style="fill-rule:nonzero;fill:rgb(100%,100%,100%);fill-opacity:1;stroke-width:1;stroke-linecap:butt;stroke-linejoin:miter;stroke:rgb(100%,100%,100%);stroke-opacity:1;stroke-miterlimit:4;" d="M 32 42 C 32 33.2 39.2 26 48 26 C 56.8 26 64 33.2 64 42 C 64 50.8 56.8 58 48 58 C 39.2 58 32 50.8 32 42 Z M 48 18 C 49.1 18 50 18.9 50 20 C 50 21.1 49.1 22 48 22 C 46.9 22 46 21.1 46 20 C 46 18.9 46.9 18 48 18 Z M 68.5 75.6 L 56 74 L 56 68.8 C 67.6 65.4 76 54.7 76 42 C 76 26.5 63.5 14 48 14 C 32.5 14 20 26.5 20 42 C 20 54.7 28.4 65.4 40 68.8 L 40 74 L 27.5 75.6 C 25.5 75.9 24 77.6 24 79.6 L 24 82 L 72 82 L 72 79.5 C 72 77.5 70.5 75.8 68.5 75.6 Z M 68.5 75.6 " transform="matrix(0.15625,0,0,0.15625,0,0)"/>
<path style="fill-rule:nonzero;fill:rgb(100%,100%,100%);fill-opacity:1;stroke-width:1;stroke-linecap:butt;stroke-linejoin:miter;stroke:rgb(100%,100%,100%);stroke-opacity:1;stroke-miterlimit:4;" d="M 48 48 C 44.7 48 42 45.3 42 42 C 42 38.7 44.7 36 48 36 C 51.3 36 54 38.7 54 42 C 54 45.3 51.3 48 48 48 Z M 48 30 C 41.4 30 36 35.4 36 42 C 36 48.6 41.4 54 48 54 C 54.6 54 60 48.6 60 42 C 60 35.4 54.6 30 48 30 Z M 48 30 " transform="matrix(0.15625,0,0,0.15625,0,0)"/>
</g>
</svg>
