<svg width="12" height="14" viewBox="0 0 12 14" fill="none" xmlns="http://www.w3.org/2000/svg">
<path d="M5.99999 0C3.20423 0 0.929718 2.27451 0.929718 5.07024C0.929718 8.53983 5.46711 13.6334 5.6603 13.8485C5.84175 14.0506 6.15855 14.0503 6.33968 13.8485C6.53286 13.6334 11.0703 8.53983 11.0703 5.07024C11.0702 2.27451 8.79572 0 5.99999 0ZM5.99999 7.62122C4.59337 7.62122 3.44903 6.47686 3.44903 5.07024C3.44903 3.66362 4.5934 2.51929 5.99999 2.51929C7.40658 2.51929 8.55091 3.66365 8.55091 5.07027C8.55091 6.47689 7.40658 7.62122 5.99999 7.62122Z" fill="white"/>
</svg>
