<?xml version="1.0" encoding="UTF-8"?>
<svg xmlns="http://www.w3.org/2000/svg" xmlns:xlink="http://www.w3.org/1999/xlink" width="15px" height="15px" viewBox="0 0 15 15" version="1.1">
<g id="surface1">
<path style=" stroke:none;fill-rule:nonzero;fill:rgb(100%,100%,100%);fill-opacity:1;" d="M 12.8125 10 L 2.1875 10 L 2.1875 3.125 L 12.8125 3.125 Z M 13.125 2.1875 L 1.875 2.1875 C 1.53125 2.1875 1.25 2.46875 1.25 2.8125 L 1.25 10.3125 C 1.25 10.65625 1.53125 10.9375 1.875 10.9375 L 6.25 10.9375 L 6.25 11.875 L 4.6875 11.875 L 4.6875 12.8125 L 10.3125 12.8125 L 10.3125 11.875 L 8.75 11.875 L 8.75 10.9375 L 13.125 10.9375 C 13.46875 10.9375 13.75 10.65625 13.75 10.3125 L 13.75 2.8125 C 13.75 2.46875 13.46875 2.1875 13.125 2.1875 Z M 13.125 2.1875 "/>
</g>
</svg>
