<svg width="29" height="28" viewBox="0 0 29 28" fill="none" xmlns="http://www.w3.org/2000/svg">
<g clip-path="url(#clip0_80_2955)">
<path d="M20.625 2.3334H19.1666V1.1666C19.1666 0.522736 18.6451 0 18 0C17.3549 0 16.8334 0.522736 16.8334 1.1666V2.3334H7.5V1.1666C7.5 0.522736 6.97855 0 6.3334 0C5.68826 0 5.1666 0.522736 5.1666 1.1666V2.3334H3.7084C1.93854 2.3334 0.5 3.77173 0.5 5.5416V18.6666C0.5 20.5963 2.07034 22.1666 4 22.1666H9.8334C10.4785 22.1666 11 21.6441 11 21C11 20.3559 10.4785 19.8334 9.8334 19.8334H4C3.35593 19.8334 2.8334 19.3096 2.8334 18.6666V9.33341H21.5C21.5 9.97727 22.0215 10.5 22.6666 10.5C23.3117 10.5 23.8334 9.97727 23.8334 9.33341V5.5416C23.8334 3.77173 22.3949 2.3334 20.625 2.3334Z" fill="white"/>
<path d="M20.9166 12.8335C16.7354 12.8335 13.3334 16.2354 13.3334 20.4167C13.3334 24.5981 16.7354 28.0001 20.9166 28.0001C25.0981 28.0001 28.5 24.5981 28.5 20.4167C28.5 16.2354 25.0981 12.8335 20.9166 12.8335ZM24.4236 19.1392L20.632 23.5142C20.4197 23.7592 20.1151 23.9039 19.7921 23.9167C19.778 23.9167 19.7641 23.9167 19.75 23.9167C19.4409 23.9167 19.1446 23.7943 18.9252 23.5749L16.8836 21.5333C16.4273 21.077 16.4273 20.3398 16.8836 19.8837C17.3397 19.4274 18.0769 19.4274 18.5332 19.8837L19.6893 21.0398L22.6598 17.612C23.0821 17.1243 23.8193 17.0743 24.3059 17.4943C24.7924 17.9154 24.8449 18.6528 24.4236 19.1392Z" fill="white"/>
</g>
<defs>
<clipPath id="clip0_80_2955">
<rect width="28" height="28" fill="white" transform="translate(0.5)"/>
</clipPath>
</defs>
</svg>
