<svg width="96" height="96" viewBox="0 0 96 96" fill="none" xmlns="http://www.w3.org/2000/svg">
<path d="M48 0C34.0427 0 22.6875 11.3552 22.6875 25.3125C22.6875 39.2698 34.0427 50.625 48 50.625C61.9573 50.625 73.3125 39.2698 73.3125 25.3125C73.3125 11.3552 61.9573 0 48 0Z" fill="#B9B9B9"/>
<path d="M79.4936 67.1616C72.5636 60.1251 63.3767 56.25 53.625 56.25H42.375C32.6235 56.25 23.4364 60.1251 16.5064 67.1616C9.61031 74.1636 5.8125 83.4062 5.8125 93.1875C5.8125 94.7408 7.07175 96 8.625 96H87.375C88.9283 96 90.1875 94.7408 90.1875 93.1875C90.1875 83.4062 86.3897 74.1636 79.4936 67.1616Z" fill="#B9B9B9"/>
</svg>
