<svg width="14" height="14" viewBox="0 0 14 14" fill="none" xmlns="http://www.w3.org/2000/svg">
<path d="M13.7569 12.5864L11.0657 9.89518C11.8813 8.82746 12.3286 7.53237 12.3288 6.16577C12.3288 4.51887 11.6874 2.97044 10.5227 1.80593C9.35815 0.641415 7.80992 0 6.16283 0C4.51594 0 2.96751 0.641415 1.80299 1.80593C-0.600997 4.21012 -0.600997 8.12182 1.80299 10.5256C2.96751 11.6903 4.51594 12.3317 6.16283 12.3317C7.52943 12.3316 8.82452 11.8842 9.89224 11.0686L12.5835 13.7598C12.7453 13.9219 12.9579 14.0029 13.1702 14.0029C13.3825 14.0029 13.595 13.9219 13.7569 13.7598C14.081 13.4359 14.081 12.9103 13.7569 12.5864ZM2.97642 9.35218C1.21952 7.59527 1.21972 4.73646 2.97642 2.97936C3.82752 2.12846 4.95921 1.65966 6.16283 1.65966C7.36665 1.65966 8.49814 2.12846 9.34924 2.97936C10.2003 3.83046 10.6691 4.96215 10.6691 6.16577C10.6691 7.36958 10.2003 8.50107 9.34924 9.35218C8.49814 10.2033 7.36665 10.6721 6.16283 10.6721C4.95921 10.6721 3.82752 10.2033 2.97642 9.35218Z" fill="white"/>
</svg>
