<svg width="14" height="15" viewBox="0 0 14 15" fill="none" xmlns="http://www.w3.org/2000/svg">
<g clip-path="url(#clip0_98_4028)">
<path d="M8.60497 8.17078L6.29991 10.4759L5.39481 9.57078C5.32981 9.50582 5.25266 9.4543 5.16774 9.41909C5.08283 9.38395 4.99182 9.36582 4.89991 9.36582C4.808 9.36582 4.71698 9.38395 4.63207 9.41909C4.54716 9.4543 4.47 9.50582 4.40501 9.57078C4.34002 9.63581 4.28846 9.71295 4.25329 9.79786C4.21811 9.88277 4.20001 9.97377 4.20001 10.0657C4.20001 10.1577 4.21811 10.2487 4.25329 10.3336C4.28846 10.4185 4.34002 10.4956 4.40501 10.5607L5.80501 11.9606C5.86986 12.0258 5.94697 12.0776 6.03191 12.1129C6.11684 12.1483 6.20792 12.1665 6.29991 12.1665C6.39189 12.1665 6.48297 12.1483 6.5679 12.1129C6.65283 12.0776 6.72995 12.0258 6.79481 11.9606L9.59484 9.16058C9.6598 9.09562 9.71132 9.01848 9.74653 8.93357C9.78167 8.84866 9.7998 8.75766 9.7998 8.66568C9.7998 8.57377 9.78167 8.48277 9.74653 8.39786C9.71132 8.31295 9.6598 8.23581 9.59484 8.17078C9.52981 8.10582 9.45267 8.0543 9.36776 8.01909C9.28285 7.98395 9.19185 7.96582 9.09987 7.96582C9.00796 7.96582 8.91696 7.98395 8.83205 8.01909C8.74714 8.0543 8.67 8.10582 8.60497 8.17078Z" fill="white"/>
<path fill-rule="evenodd" clip-rule="evenodd" d="M10.5 2.36582H12.25C12.81 2.36582 13.3 2.85582 13.3 3.41582V13.9158C13.3 14.4758 12.81 14.9658 12.25 14.9658H1.75001C1.19001 14.9658 0.700012 14.4758 0.700012 13.9158V3.41582C0.700012 2.85582 1.19001 2.36582 1.75001 2.36582H2.80001V1.66582C2.80001 1.27922 3.11342 0.96582 3.50001 0.96582C3.88661 0.96582 4.20001 1.27922 4.20001 1.66582V2.36582H9.10001V1.66582C9.10001 1.27922 9.4134 0.96582 9.80001 0.96582C10.1866 0.96582 10.5 1.27922 10.5 1.66582V2.36582ZM11.9 13.5658H2.10001V6.56582H11.9V13.5658Z" fill="white"/>
</g>
<defs>
<clipPath id="clip0_98_4028">
<rect width="14" height="14" fill="white" transform="translate(0 0.96582)"/>
</clipPath>
</defs>
</svg>
