<svg width="14" height="14" viewBox="0 0 14 14" fill="none" xmlns="http://www.w3.org/2000/svg">
<path d="M11.8125 2.625H9.1875V2.1875C9.1875 1.46387 8.59863 0.875 7.875 0.875H6.125C5.40137 0.875 4.8125 1.46387 4.8125 2.1875V2.625H2.1875C1.70494 2.625 1.3125 3.01744 1.3125 3.5V3.9375C1.3125 4.179 1.5085 4.375 1.75 4.375H12.25C12.4915 4.375 12.6875 4.179 12.6875 3.9375V3.5C12.6875 3.01744 12.2951 2.625 11.8125 2.625ZM5.6875 2.1875C5.6875 1.94644 5.88394 1.75 6.125 1.75H7.875C8.11606 1.75 8.3125 1.94644 8.3125 2.1875V2.625H5.6875V2.1875Z" fill="white"/>
<path d="M2.625 5.25V11.8125C2.625 12.5361 3.21387 13.125 3.9375 13.125H10.0625C10.7861 13.125 11.375 12.5361 11.375 11.8125V5.25H2.625ZM8.62181 9.75319C8.79288 9.92425 8.79288 10.2008 8.62181 10.3718C8.45075 10.5429 8.17425 10.5429 8.00319 10.3718L7 9.36862L5.99681 10.3718C5.82575 10.5429 5.54925 10.5429 5.37819 10.3718C5.20713 10.2008 5.20713 9.92425 5.37819 9.75319L6.38138 8.75L5.37819 7.74681C5.20713 7.57575 5.20713 7.29925 5.37819 7.12819C5.54925 6.95712 5.82575 6.95712 5.99681 7.12819L7 8.13138L8.00319 7.12819C8.17425 6.95712 8.45075 6.95712 8.62181 7.12819C8.79288 7.29925 8.79288 7.57575 8.62181 7.74681L7.61862 8.75L8.62181 9.75319Z" fill="white"/>
</svg>
